<svg xmlns="http://www.w3.org/2000/svg" viewBox="0 0 1080 1080" width="1080" height="1080" preserveAspectRatio="xMidYMid meet" style="width: 100%; height: 100%; transform: translate3d(0px, 0px, 0px); content-visibility: visible;"><defs><clipPath id="__lottie_element_88"><rect width="1080" height="1080" x="0" y="0"></rect></clipPath></defs><g clip-path="url(#__lottie_element_88)"><g transform="matrix(1,0,0,1,97.77301025390625,316.82000732421875)" opacity="1" style="display: block;"><g opacity="1" transform="matrix(1,0,0,1,794.1279907226562,94.68699645996094)"><path fill="rgb(159,190,255)" fill-opacity="1" d=" M25.51099967956543,-10.40999984741211 C25.51099967956543,-10.40999984741211 25.898000717163086,-9.465999603271484 25.898000717163086,-9.465999603271484 C25.898000717163086,-9.465999603271484 25.898000717163086,-9.413000106811523 25.898000717163086,-9.413000106811523 C28.368000030517578,-2.6480000019073486 28.023000717163086,4.497000217437744 25.424999237060547,10.680999755859375 C22.704999923706055,17.165000915527344 17.479000091552734,22.625999450683594 10.413999557495117,25.516000747680664 C10.413999557495117,25.516000747680664 9.468999862670898,25.89900016784668 9.468999862670898,25.89900016784668 C9.468999862670898,25.89900016784668 9.40999984741211,25.89900016784668 9.40999984741211,25.89900016784668 C2.6489999294281006,28.36400032043457 -4.495999813079834,28.027999877929688 -10.675999641418457,25.426000595092773 C-17.166000366210938,22.704999923706055 -22.628999710083008,17.479999542236328 -25.516000747680664,10.41100025177002 C-25.516000747680664,10.41100025177002 -25.898000717163086,9.465999603271484 -25.898000717163086,9.465999603271484 C-25.898000717163086,9.465999603271484 -25.898000717163086,9.413999557495117 -25.898000717163086,9.413999557495117 C-28.368000030517578,2.6489999294281006 -28.023000717163086,-4.495999813079834 -25.424999237060547,-10.680999755859375 C-22.704999923706055,-17.167999267578125 -17.47599983215332,-22.628999710083008 -10.413999557495117,-25.514999389648438 C-10.413999557495117,-25.514999389648438 -9.470000267028809,-25.898000717163086 -9.470000267028809,-25.898000717163086 C-9.470000267028809,-25.898000717163086 -9.413999557495117,-25.898000717163086 -9.413999557495117,-25.898000717163086 C-2.6480000019073486,-28.36400032043457 4.497000217437744,-28.027000427246094 10.675999641418457,-25.426000595092773 C17.167999267578125,-22.70400047302246 22.628999710083008,-17.479000091552734 25.51099967956543,-10.40999984741211z M16.35099983215332,-6.864999771118164 C14.493000030517578,-11.295000076293945 11.005999565124512,-14.586000442504883 6.861000061035156,-16.325000762939453 C2.6630001068115234,-18.086999893188477 -2.194999933242798,-18.2549991607666 -6.708000183105469,-16.415000915527344 C-6.708000183105469,-16.415000915527344 -6.861999988555908,-16.347000122070312 -6.861999988555908,-16.347000122070312 C-11.291999816894531,-14.491999626159668 -14.586000442504883,-11.001999855041504 -16.32900047302246,-6.861000061035156 C-18.086999893188477,-2.6630001068115234 -18.256000518798828,2.194999933242798 -16.41200065612793,6.710999965667725 C-16.41200065612793,6.710999965667725 -16.354999542236328,6.849999904632568 -16.354999542236328,6.849999904632568 C-14.5,11.288000106811523 -11.010000228881836,14.586000442504883 -6.85699987411499,16.323999404907227 C-2.6630001068115234,18.086999893188477 2.194999933242798,18.256000518798828 6.710999965667725,16.415000915527344 C6.710999965667725,16.415000915527344 6.848999977111816,16.35099983215332 6.848999977111816,16.35099983215332 C11.288000106811523,14.5 14.581000328063965,11.013999938964844 16.325000762939453,6.861000061035156 C18.09000015258789,2.6630001068115234 18.259000778198242,-2.194000005722046 16.413999557495117,-6.706999778747559 C16.413999557495117,-6.706999778747559 16.35099983215332,-6.864999771118164 16.35099983215332,-6.864999771118164z"></path></g><g opacity="1" transform="matrix(1,0,0,1,790.6939697265625,343.5159912109375)"><path fill="rgb(159,190,255)" fill-opacity="1" d=" M5.214000225067139,20.07900047302246 C5.214000225067139,22.961999893188477 2.878000020980835,25.297000885009766 -0.004000000189989805,25.297000885009766 C-2.881999969482422,25.297000885009766 -5.2179999351501465,22.961999893188477 -5.2179999351501465,20.07900047302246 C-5.2179999351501465,20.07900047302246 -5.2179999351501465,-20.073999404907227 -5.2179999351501465,-20.073999404907227 C-5.2179999351501465,-22.957000732421875 -2.881999969482422,-25.292999267578125 -0.004000000189989805,-25.292999267578125 C2.878000020980835,-25.292999267578125 5.214000225067139,-22.957000732421875 5.214000225067139,-20.073999404907227 C5.214000225067139,-20.073999404907227 5.214000225067139,20.07900047302246 5.214000225067139,20.07900047302246z M20.073999404907227,-5.214000225067139 C22.95800018310547,-5.214000225067139 25.292999267578125,-2.878999948501587 25.292999267578125,0.004000000189989805 C25.292999267578125,2.878999948501587 22.95800018310547,5.214000225067139 20.073999404907227,5.214000225067139 C20.073999404907227,5.214000225067139 -20.07900047302246,5.214000225067139 -20.07900047302246,5.214000225067139 C-22.95800018310547,5.214000225067139 -25.292999267578125,2.878999948501587 -25.292999267578125,0.004000000189989805 C-25.292999267578125,-2.878999948501587 -22.95800018310547,-5.214000225067139 -20.07900047302246,-5.214000225067139 C-20.07900047302246,-5.214000225067139 20.073999404907227,-5.214000225067139 20.073999404907227,-5.214000225067139z"></path></g><g opacity="1" transform="matrix(1,0,0,1,61.98899841308594,54.31399917602539)"><path fill="rgb(159,190,255)" fill-opacity="1" d=" M5.214000225067139,20.076000213623047 C5.214000225067139,22.958999633789062 2.878999948501587,25.29400062561035 -0.0020000000949949026,25.29400062561035 C-2.881999969482422,25.29400062561035 -5.2170000076293945,22.958999633789062 -5.2170000076293945,20.076000213623047 C-5.2170000076293945,20.076000213623047 -5.2170000076293945,-20.077999114990234 -5.2170000076293945,-20.077999114990234 C-5.2170000076293945,-22.957000732421875 -2.881999969482422,-25.29199981689453 -0.0020000000949949026,-25.29199981689453 C2.878999948501587,-25.29199981689453 5.214000225067139,-22.957000732421875 5.214000225067139,-20.077999114990234 C5.214000225067139,-20.077999114990234 5.214000225067139,20.076000213623047 5.214000225067139,20.076000213623047z M20.076000213623047,-5.214000225067139 C22.95800018310547,-5.214000225067139 25.292999267578125,-2.878000020980835 25.292999267578125,0 C25.292999267578125,2.878000020980835 22.95800018310547,5.214000225067139 20.076000213623047,5.214000225067139 C20.076000213623047,5.214000225067139 -20.07900047302246,5.214000225067139 -20.07900047302246,5.214000225067139 C-22.95800018310547,5.214000225067139 -25.292999267578125,2.878000020980835 -25.292999267578125,0 C-25.292999267578125,-2.878000020980835 -22.95800018310547,-5.214000225067139 -20.07900047302246,-5.214000225067139 C-20.07900047302246,-5.214000225067139 20.076000213623047,-5.214000225067139 20.076000213623047,-5.214000225067139z"></path></g><g opacity="1" transform="matrix(1,0,0,1,76.89600372314453,362.7460021972656)"><path fill="rgb(159,190,255)" fill-opacity="1" d=" M25.51099967956543,-10.413000106811523 C25.51099967956543,-10.413000106811523 25.900999069213867,-9.468000411987305 25.900999069213867,-9.468000411987305 C25.900999069213867,-9.468000411987305 25.900999069213867,-9.416000366210938 25.900999069213867,-9.416000366210938 C28.368000030517578,-2.6459999084472656 28.02199935913086,4.497000217437744 25.429000854492188,10.678000450134277 C22.70400047302246,17.166000366210938 17.47800064086914,22.62700080871582 10.413999557495117,25.513999938964844 C10.413999557495117,25.513999938964844 9.468999862670898,25.89900016784668 9.468999862670898,25.89900016784668 C9.468999862670898,25.89900016784668 9.413000106811523,25.89900016784668 9.413000106811523,25.89900016784668 C2.6470000743865967,28.365999221801758 -4.497000217437744,28.024999618530273 -10.677000045776367,25.427000045776367 C-17.166000366210938,22.70599937438965 -22.62700080871582,17.47800064086914 -25.517000198364258,10.41100025177002 C-25.517000198364258,10.41100025177002 -25.89900016784668,9.468000411987305 -25.89900016784668,9.468000411987305 C-25.89900016784668,9.468000411987305 -25.89900016784668,9.414999961853027 -25.89900016784668,9.414999961853027 C-28.368000030517578,2.6459999084472656 -28.024999618530273,-4.49399995803833 -25.427000045776367,-10.678000450134277 C-22.704999923706055,-17.16699981689453 -17.476999282836914,-22.628000259399414 -10.416000366210938,-25.513999938964844 C-10.416000366210938,-25.513999938964844 -9.470999717712402,-25.89900016784668 -9.470999717712402,-25.89900016784668 C-9.470999717712402,-25.89900016784668 -9.414999961853027,-25.89900016784668 -9.414999961853027,-25.89900016784668 C-2.6449999809265137,-28.365999221801758 4.494999885559082,-28.024999618530273 10.675999641418457,-25.424999237060547 C17.16699981689453,-22.707000732421875 22.628000259399414,-17.47800064086914 25.51099967956543,-10.413000106811523z M16.35099983215332,-6.86299991607666 C14.491999626159668,-11.293999671936035 11.005999565124512,-14.588000297546387 6.860000133514404,-16.32699966430664 C2.6630001068115234,-18.089000701904297 -2.191999912261963,-18.257999420166016 -6.708000183105469,-16.413999557495117 C-6.708000183105469,-16.413999557495117 -6.861999988555908,-16.349000930786133 -6.861999988555908,-16.349000930786133 C-11.293000221252441,-14.494999885559082 -14.586999893188477,-11.005000114440918 -16.326000213623047,-6.859000205993652 C-18.08799934387207,-2.6649999618530273 -18.256000518798828,2.193000078201294 -16.413000106811523,6.709000110626221 C-16.413000106811523,6.709000110626221 -16.356000900268555,6.85099983215332 -16.356000900268555,6.85099983215332 C-14.496999740600586,11.288999557495117 -11.01099967956543,14.586999893188477 -6.859000205993652,16.326000213623047 C-2.6640000343322754,18.08799934387207 2.194000005722046,18.256999969482422 6.710000038146973,16.413000106811523 C6.710000038146973,16.413000106811523 6.8520002365112305,16.35300064086914 6.8520002365112305,16.35300064086914 C11.286999702453613,14.498000144958496 14.581000328063965,11.01200008392334 16.323999404907227,6.859000205993652 C18.089000701904297,2.6600000858306885 18.257999420166016,-2.193000078201294 16.413000106811523,-6.710000038146973 C16.413000106811523,-6.710000038146973 16.35099983215332,-6.86299991607666 16.35099983215332,-6.86299991607666z"></path></g><g opacity="1" transform="matrix(1,0,0,1,7.502999782562256,235.71099853515625)"><path fill="rgb(159,190,255)" fill-opacity="1" d=" M0.0010000000474974513,7.250999927520752 C3.992000102996826,7.250999927520752 7.252999782562256,3.993000030517578 7.252999782562256,-0.0020000000949949026 C7.252999782562256,-3.99399995803833 3.992000102996826,-7.250999927520752 0.0010000000474974513,-7.250999927520752 C-3.992000102996826,-7.250999927520752 -7.252999782562256,-3.99399995803833 -7.252999782562256,-0.0020000000949949026 C-7.252999782562256,3.993000030517578 -3.992000102996826,7.250999927520752 0.0010000000474974513,7.250999927520752z"></path></g><g opacity="1" transform="matrix(1,0,0,1,29.256000518798828,473.1940002441406)"><path fill="rgb(159,190,255)" fill-opacity="1" d=" M0.0010000000474974513,7.252999782562256 C3.993000030517578,7.252999782562256 7.252999782562256,3.992000102996826 7.252999782562256,-0.004000000189989805 C7.252999782562256,-3.994999885559082 3.993000030517578,-7.252999782562256 0.0010000000474974513,-7.252999782562256 C-3.992000102996826,-7.252999782562256 -7.252999782562256,-3.994999885559082 -7.252999782562256,-0.004000000189989805 C-7.252999782562256,3.992000102996826 -3.992000102996826,7.252999782562256 0.0010000000474974513,7.252999782562256z"></path></g><g opacity="1" transform="matrix(1,0,0,1,170.4759979248047,7.500999450683594)"><path fill="rgb(159,190,255)" fill-opacity="1" d=" M-0.0020000000949949026,7.250999927520752 C3.990999937057495,7.250999927520752 7.250999927520752,3.99399995803833 7.250999927520752,-0.0020000000949949026 C7.250999927520752,-3.997999906539917 3.990999937057495,-7.250999927520752 -0.0020000000949949026,-7.250999927520752 C-3.99399995803833,-7.250999927520752 -7.250999927520752,-3.997999906539917 -7.250999927520752,-0.0020000000949949026 C-7.250999927520752,3.99399995803833 -3.99399995803833,7.250999927520752 -0.0020000000949949026,7.250999927520752z"></path></g><g opacity="1" transform="matrix(1,0,0,1,722.4860229492188,41.8489990234375)"><path fill="rgb(159,190,255)" fill-opacity="1" d=" M0.0020000000949949026,7.25 C3.99399995803833,7.25 7.255000114440918,3.990999937057495 7.255000114440918,-0.004999999888241291 C7.255000114440918,-3.997999906539917 3.99399995803833,-7.25 0.0020000000949949026,-7.25 C-3.989000082015991,-7.25 -7.255000114440918,-3.997999906539917 -7.255000114440918,-0.004999999888241291 C-7.255000114440918,3.990999937057495 -3.989000082015991,7.25 0.0020000000949949026,7.25z"></path></g><g opacity="1" transform="matrix(1,0,0,1,860.3569946289062,239.95700073242188)"><path fill="rgb(159,190,255)" fill-opacity="1" d=" M0,7.250999927520752 C3.992000102996826,7.250999927520752 7.252999782562256,3.99399995803833 7.252999782562256,-0.0010000000474974513 C7.252999782562256,-3.993000030517578 3.992000102996826,-7.250999927520752 0,-7.250999927520752 C-3.990999937057495,-7.250999927520752 -7.252999782562256,-3.993000030517578 -7.252999782562256,-0.0010000000474974513 C-7.252999782562256,3.99399995803833 -3.990999937057495,7.250999927520752 0,7.250999927520752z"></path></g><g opacity="1" transform="matrix(1,0,0,1,807.7849731445312,468.3760070800781)"><path fill="rgb(159,190,255)" fill-opacity="1" d=" M0.0010000000474974513,7.250999927520752 C3.992000102996826,7.250999927520752 7.252999782562256,3.993000030517578 7.252999782562256,-0.0010000000474974513 C7.252999782562256,-3.99399995803833 3.992000102996826,-7.250999927520752 0.0010000000474974513,-7.250999927520752 C-3.990999937057495,-7.250999927520752 -7.252999782562256,-3.99399995803833 -7.252999782562256,-0.0010000000474974513 C-7.252999782562256,3.993000030517578 -3.990999937057495,7.250999927520752 0.0010000000474974513,7.250999927520752z"></path></g></g><g transform="matrix(1,0,0,1,260.74700927734375,474.7349853515625)" opacity="1" style="display: block;"><g opacity="1" transform="matrix(1,0,0,1,270.8810119628906,168.49600219726562)"><path fill="rgb(159,190,255)" fill-opacity="1" d=" M-270.6289978027344,-168.22900390625 C-270.6289978027344,-168.22900390625 270.6130065917969,-168.22900390625 270.6130065917969,-168.22900390625 C270.6210021972656,-168.22900390625 270.6289978027344,-168.22500610351562 270.6289978027344,-168.2169952392578 C270.6289978027344,-168.2169952392578 270.6289978027344,142.65199279785156 270.6289978027344,142.65199279785156 C270.6289978027344,156.718994140625 259.12200927734375,168.22900390625 245.05499267578125,168.22900390625 C245.05499267578125,168.22900390625 -245.05599975585938,168.22900390625 -245.05599975585938,168.22900390625 C-259.12298583984375,168.22900390625 -270.6289978027344,156.718994140625 -270.6289978027344,142.65199279785156 C-270.6289978027344,142.65199279785156 -270.6289978027344,-168.22900390625 -270.6289978027344,-168.22900390625z"></path></g><g opacity="1" transform="matrix(1,0,0,1,406.19500732421875,168.49600219726562)"><path fill="rgb(128,176,255)" fill-opacity="1" d=" M-135.31399536132812,-168.22900390625 C-135.31399536132812,-168.22900390625 135.2989959716797,-168.22900390625 135.2989959716797,-168.22900390625 C135.30599975585938,-168.22900390625 135.31399536132812,-168.2209930419922 135.31399536132812,-168.21299743652344 C135.31399536132812,-168.21299743652344 135.31399536132812,142.65199279785156 135.31399536132812,142.65199279785156 C135.31399536132812,156.718994140625 123.80799865722656,168.22900390625 109.73999786376953,168.22900390625 C109.73999786376953,168.22900390625 -109.73999786376953,168.22900390625 -109.73999786376953,168.22900390625 C-123.80799865722656,168.22900390625 -135.31399536132812,156.718994140625 -135.31399536132812,142.65199279785156 C-135.31399536132812,142.65199279785156 -135.31399536132812,-168.22900390625 -135.31399536132812,-168.22900390625z"></path></g><g opacity="1" transform="matrix(1,0,0,1,135.56399536132812,15.376999855041504)"><path fill="rgb(99,162,255)" fill-opacity="1" d=" M-135.31399536132812,15.111000061035156 C-135.31399536132812,15.111000061035156 135.31399536132812,15.111000061035156 135.31399536132812,15.111000061035156 C135.31399536132812,15.111000061035156 135.31399536132812,-15.111000061035156 135.31399536132812,-15.111000061035156 C135.31399536132812,-15.111000061035156 -135.31399536132812,-15.111000061035156 -135.31399536132812,-15.111000061035156 C-135.31399536132812,-15.111000061035156 -135.31399536132812,15.111000061035156 -135.31399536132812,15.111000061035156z"></path></g><g opacity="1" transform="matrix(1,0,0,1,406.1969909667969,15.376999855041504)"><path fill="rgb(99,162,255)" fill-opacity="1" d=" M135.31399536132812,15.111000061035156 C135.31399536132812,15.111000061035156 -135.31399536132812,15.111000061035156 -135.31399536132812,15.111000061035156 C-135.31399536132812,15.111000061035156 -135.31399536132812,-15.111000061035156 -135.31399536132812,-15.111000061035156 C-135.31399536132812,-15.111000061035156 135.31399536132812,-15.111000061035156 135.31399536132812,-15.111000061035156 C135.31399536132812,-15.111000061035156 135.31399536132812,15.111000061035156 135.31399536132812,15.111000061035156z"></path></g><g opacity="1" transform="matrix(1,0,0,1,148.35000610351562,169.9409942626953)"><path fill="rgb(255,246,232)" fill-opacity="1" d=" M-39.79399871826172,-168.22900390625 C-39.79399871826172,-168.22900390625 14.220999717712402,-168.22900390625 14.220999717712402,-168.22900390625 C14.220999717712402,-168.22900390625 14.220999717712402,142.65199279785156 14.220999717712402,142.65199279785156 C14.220999717712402,156.718994140625 25.73200035095215,168.22900390625 39.79399871826172,168.22900390625 C39.79399871826172,168.22900390625 -14.220000267028809,168.22900390625 -14.220000267028809,168.22900390625 C-28.28700065612793,168.22900390625 -39.79399871826172,156.718994140625 -39.79399871826172,142.65199279785156 C-39.79399871826172,142.65199279785156 -39.79399871826172,-168.22900390625 -39.79399871826172,-168.22900390625z"></path></g><g opacity="1" transform="matrix(1,0,0,1,135.56399536132812,15.361000061035156)"><path fill="rgb(211,225,246)" fill-opacity="1" d=" M-27.006999969482422,15.111000061035156 C-27.006999969482422,15.111000061035156 27.006999969482422,15.111000061035156 27.006999969482422,15.111000061035156 C27.006999969482422,15.111000061035156 27.006999969482422,-15.111000061035156 27.006999969482422,-15.111000061035156 C27.006999969482422,-15.111000061035156 -27.006999969482422,-15.111000061035156 -27.006999969482422,-15.111000061035156 C-27.006999969482422,-15.111000061035156 -27.006999969482422,15.111000061035156 -27.006999969482422,15.111000061035156z"></path></g><g opacity="1" transform="matrix(1,0,0,1,393.406005859375,169.9409942626953)"><path fill="rgb(228,221,210)" fill-opacity="1" d=" M39.79399871826172,-168.22900390625 C39.79399871826172,-168.22900390625 -14.220999717712402,-168.22900390625 -14.220999717712402,-168.22900390625 C-14.220999717712402,-168.22900390625 -14.220999717712402,142.65199279785156 -14.220999717712402,142.65199279785156 C-14.220999717712402,156.718994140625 -25.726999282836914,168.22900390625 -39.79399871826172,168.22900390625 C-39.79399871826172,168.22900390625 14.220999717712402,168.22900390625 14.220999717712402,168.22900390625 C28.28700065612793,168.22900390625 39.79399871826172,156.718994140625 39.79399871826172,142.65199279785156 C39.79399871826172,142.65199279785156 39.79399871826172,-168.22900390625 39.79399871826172,-168.22900390625z"></path></g><g opacity="1" transform="matrix(1,0,0,1,406.1969909667969,15.361000061035156)"><path fill="rgb(179,202,234)" fill-opacity="1" d=" M-27.007999420166016,15.111000061035156 C-27.007999420166016,15.111000061035156 27.007999420166016,15.111000061035156 27.007999420166016,15.111000061035156 C27.007999420166016,15.111000061035156 27.007999420166016,-15.111000061035156 27.007999420166016,-15.111000061035156 C27.007999420166016,-15.111000061035156 -27.007999420166016,-15.111000061035156 -27.007999420166016,-15.111000061035156 C-27.007999420166016,-15.111000061035156 -27.007999420166016,15.111000061035156 -27.007999420166016,15.111000061035156z"></path></g></g><g transform="matrix(1,0,0,1,229.53900146484375,393.3999938964844)" opacity="1" style="display: block;"><g opacity="1" transform="matrix(1,0,0,1,302.0880126953125,43.64799880981445)"><path fill="rgb(159,190,255)" fill-opacity="1" d=" M-282.1449890136719,-43.39799880981445 C-282.1449890136719,-43.39799880981445 282.14599609375,-43.39799880981445 282.14599609375,-43.39799880981445 C292.9739990234375,-43.39799880981445 301.8380126953125,-34.5369987487793 301.8380126953125,-23.70199966430664 C301.8380126953125,-23.70199966430664 301.8380126953125,23.701000213623047 301.8380126953125,23.701000213623047 C301.8380126953125,34.53799819946289 292.9739990234375,43.39799880981445 282.14599609375,43.39799880981445 C282.14599609375,43.39799880981445 -282.1449890136719,43.39799880981445 -282.1449890136719,43.39799880981445 C-292.9779968261719,43.39799880981445 -301.8380126953125,34.53799819946289 -301.8380126953125,23.701000213623047 C-301.8380126953125,23.701000213623047 -301.8380126953125,-23.70199966430664 -301.8380126953125,-23.70199966430664 C-301.8380126953125,-34.5369987487793 -292.9779968261719,-43.39799880981445 -282.1449890136719,-43.39799880981445z"></path></g><g opacity="1" transform="matrix(1,0,0,1,443.1570129394531,43.64799880981445)"><path fill="rgb(128,176,255)" fill-opacity="1" d=" M-141.06900024414062,-43.39799880981445 C-141.06900024414062,-43.39799880981445 141.06900024414062,-43.39799880981445 141.06900024414062,-43.39799880981445 C151.906005859375,-43.39799880981445 160.76600646972656,-34.534000396728516 160.76600646972656,-23.70199966430664 C160.76600646972656,-23.70199966430664 160.76600646972656,23.701000213623047 160.76600646972656,23.701000213623047 C160.76600646972656,34.53799819946289 151.906005859375,43.39799880981445 141.06900024414062,43.39799880981445 C141.06900024414062,43.39799880981445 -141.06900024414062,43.39799880981445 -141.06900024414062,43.39799880981445 C-151.90199279785156,43.39799880981445 -160.76600646972656,34.53799819946289 -160.76600646972656,23.701000213623047 C-160.76600646972656,23.701000213623047 -160.76600646972656,-23.70199966430664 -160.76600646972656,-23.70199966430664 C-160.76600646972656,-34.534000396728516 -151.90199279785156,-43.39799880981445 -141.06900024414062,-43.39799880981445z"></path></g><g opacity="1" transform="matrix(1,0,0,1,156.9239959716797,43.64799880981445)"><path fill="rgb(255,246,232)" fill-opacity="1" d=" M-17.160999298095703,-43.39799880981445 C-17.160999298095703,-43.39799880981445 36.854000091552734,-43.39799880981445 36.854000091552734,-43.39799880981445 C26.020999908447266,-43.39799880981445 17.160999298095703,-34.534000396728516 17.160999298095703,-23.70199966430664 C17.160999298095703,-23.70199966430664 17.160999298095703,23.701000213623047 17.160999298095703,23.701000213623047 C17.160999298095703,34.53799819946289 26.020999908447266,43.39799880981445 36.854000091552734,43.39799880981445 C36.854000091552734,43.39799880981445 -17.160999298095703,43.39799880981445 -17.160999298095703,43.39799880981445 C-27.993999481201172,43.39799880981445 -36.854000091552734,34.53799819946289 -36.854000091552734,23.701000213623047 C-36.854000091552734,23.701000213623047 -36.854000091552734,-23.70199966430664 -36.854000091552734,-23.70199966430664 C-36.854000091552734,-34.534000396728516 -27.993999481201172,-43.39799880981445 -17.160999298095703,-43.39799880981445z"></path></g><g opacity="1" transform="matrix(1,0,0,1,447.24798583984375,43.64799880981445)"><path fill="rgb(228,221,210)" fill-opacity="1" d=" M17.15999984741211,-43.39799880981445 C17.15999984741211,-43.39799880981445 -36.85499954223633,-43.39799880981445 -36.85499954223633,-43.39799880981445 C-26.02199935913086,-43.39799880981445 -17.158000946044922,-34.534000396728516 -17.158000946044922,-23.70199966430664 C-17.158000946044922,-23.70199966430664 -17.158000946044922,23.701000213623047 -17.158000946044922,23.701000213623047 C-17.158000946044922,34.53799819946289 -26.02199935913086,43.39799880981445 -36.85499954223633,43.39799880981445 C-36.85499954223633,43.39799880981445 17.15999984741211,43.39799880981445 17.15999984741211,43.39799880981445 C27.996999740600586,43.39799880981445 36.85499954223633,34.53799819946289 36.85499954223633,23.701000213623047 C36.85499954223633,23.701000213623047 36.85499954223633,-23.70199966430664 36.85499954223633,-23.70199966430664 C36.85499954223633,-34.534000396728516 27.996999740600586,-43.39799880981445 17.15999984741211,-43.39799880981445z"></path></g></g><g transform="matrix(1,0,0,1,363.4630126953125,158.07000732421875)" opacity="1" style="display: block;"><g opacity="1" transform="matrix(0.9848077297210693,-0.1736481785774231,0.1736481785774231,0.9848077297210693,61.05408477783203,159.34698486328125)"><g opacity="1" transform="matrix(1,0,0,1,16.875,-29.76799964904785)"><path fill="rgb(255,246,232)" fill-opacity="1" d=" M82.34200286865234,110.21299743652344 C82.34200286865234,87.77999877929688 76.40399932861328,66.65499877929688 69.80599975585938,45.5369987487793 C61.88800048828125,17.81999969482422 55.95000076293945,-10.560999870300293 43.41400146484375,-36.95399856567383 C25.599000930786133,-74.5719985961914 -0.7929999828338623,-111.53199768066406 -47.63800048828125,-87.10800170898438 C-65.8499984741211,-77.74299621582031 -76.98999786376953,-64.75800323486328 -82.34200286865234,-50.03099822998047 C-75.62300109863281,-50.04600143432617 -68.47899627685547,-47.88100051879883 -62.15399932861328,-44.875999450683594 C-25.204999923706055,-26.39699935913086 -0.7929999828338623,13.861000061035156 19.660999298095703,48.17599868774414 C28.238000869750977,62.696998596191406 37.47600173950195,75.89299774169922 46.7130012512207,89.75399780273438 C49.702999114990234,94.24400329589844 55.016998291015625,102.33100128173828 57.38800048828125,109.82099914550781 C64.5479965209961,110.93499755859375 71.77999877929688,111.53199768066406 79.04299926757812,111.53199768066406 C79.04299926757812,111.53199768066406 82.34200286865234,110.21299743652344 82.34200286865234,110.21299743652344z"></path></g><path fill="rgb(228,221,210)" fill-opacity="1" d=" M36.250999450683594,18.288999557495117 C15.79699993133545,-16.025999069213867 -8.616000175476074,-56.284000396728516 -45.56399917602539,-74.76399993896484 C-51.888999938964844,-77.76899719238281 -59.03499984741211,-79.93399810791016 -65.75299835205078,-79.91799926757812 C-73.97799682617188,-57.28900146484375 -68.41000366210938,-30.51099967956543 -52.821998596191406,-6.129000186920166 C-25.027999877929688,36.731998443603516 22.594999313354492,71.9540023803711 73.97699737548828,79.93399810791016 C71.6050033569336,72.44400024414062 66.29199981689453,64.35600280761719 63.301998138427734,59.867000579833984 C54.06399917602539,46.005001068115234 44.827999114990234,32.810001373291016 36.250999450683594,18.288999557495117z"></path></g><g opacity="1" transform="matrix(0.9993908405303955,-0.03489949554204941,0.03489949554204941,0.9993908405303955,267.3791809082031,170.79180908203125)"><g opacity="1" transform="matrix(1,0,0,1,-12.970000267028809,-44.37099838256836)"><path fill="rgb(255,246,232)" fill-opacity="1" d=" M-102.177001953125,90.38999938964844 C-95.61499786376953,68.93599700927734 -83.76000213623047,50.47700119018555 -71.27300262451172,32.2140007019043 C-55.59199905395508,8.027999877929688 -41.61199951171875,-17.374000549316406 -21.9060001373291,-38.94599914550781 C6.140999794006348,-69.70500183105469 42.18600082397461,-97.31800079345703 79.84200286865234,-60.26100158691406 C94.51200103759766,-45.97200012207031 101.36799621582031,-30.297000885009766 102.177001953125,-14.647000312805176 C95.75900268554688,-16.62700080871582 88.2959976196289,-16.652000427246094 81.36199951171875,-15.621999740600586 C40.625,-8.765000343322754 5.506999969482422,22.584999084472656 -24.09600067138672,49.40999984741211 C-36.54499816894531,60.7859992980957 -49.231998443603516,70.7040023803711 -62.12900161743164,81.25599670410156 C-66.29299926757812,84.66799926757812 -73.74700164794922,90.85399627685547 -78.2030029296875,97.31800079345703 C-85.3740005493164,96.28700256347656 -92.46700286865234,94.73999786376953 -99.41000366210938,92.61699676513672 C-99.41000366210938,92.61699676513672 -102.177001953125,90.38999938964844 -102.177001953125,90.38999938964844z"></path></g><path fill="rgb(228,221,210)" fill-opacity="1" d=" M-36.707000732421875,5.374000072479248 C-7.104000091552734,-21.451000213623047 28.013999938964844,-52.80099868774414 68.7509994506836,-59.65800094604492 C75.68499755859375,-60.68899917602539 83.14800262451172,-60.66299819946289 89.56600189208984,-58.68299865722656 C90.81300354003906,-34.63600158691406 77.65299987792969,-10.656999588012695 55.617000579833984,8.095999717712402 C16.493000030517578,40.946998596191406 -39.347999572753906,60.68899917602539 -90.81400299072266,53.28200149536133 C-86.35800170898438,46.81800079345703 -78.90399932861328,40.63199996948242 -74.73999786376953,37.220001220703125 C-61.84299850463867,26.667999267578125 -49.15599822998047,16.75 -36.707000732421875,5.374000072479248z"></path></g><g opacity="1" transform="matrix(1,0,0,1,164.4250030517578,224.93600463867188)"><path fill="rgb(255,246,232)" fill-opacity="1" d=" M0,-11.97700023651123 C-21.600000381469727,-11.97700023651123 -39.111000061035156,-1.2519999742507935 -39.111000061035156,11.97700023651123 C-39.111000061035156,11.97700023651123 39.111000061035156,11.97700023651123 39.111000061035156,11.97700023651123 C39.111000061035156,-1.2519999742507935 21.600000381469727,-11.97700023651123 0,-11.97700023651123z"></path></g></g></g></svg>